v 0.113575 0.535508 0.686251
v -0.148741 0.860034 0.455177
v -0.495133 -0.723571 1.086805
v -0.038314 -0.483632 0.875620
v -0.039054 -0.325145 0.836412
v -0.274465 0.488865 0.846663
v -0.165012 0.066554 0.493611
v 0.279996 1.185457 -0.204062
v -0.026879 0.275063 0.604682
v 0.035084 0.194015 1.231817
v 0.332944 -0.019328 0.573595
v -0.058101 0.004985 1.135270
v -0.016986 0.724351 0.436829
v -0.135841 0.672531 0.759539
v 0.237263 0.522474 0.368326
v 0.205003 0.290381 0.631064
v 0.030972 0.347091 0.993678
v 0.039028 0.752334 0.638256
v -0.063873 0.630538 0.165704
v -0.212640 0.451559 0.614291
v 0.004367 0.600057 0.946870
v -0.200820 -0.654399 0.734189
v 0.073301 -0.436232 0.841613
v -0.260673 -0.146608 0.707272
v 0.087710 -0.386330 0.850812
v -0.076400 -0.369937 1.105652
v 0.285225 -0.718229 0.838767
v -0.017380 -0.061431 0.596324
v -0.025580 0.059796 0.824090
v -0.039685 -0.222241 1.023564
v -0.314793 0.095026 0.691379
v 0.002865 -0.131955 1.013609
v -0.252735 -0.064096 1.026531
v 0.131104 0.337376 0.837241
v -0.076721 0.290807 0.901248
v -0.301206 0.031650 0.171450
v 0.050731 0.718422 0.385347
v 0.119973 -0.499613 0.922210
v -0.061315 0.312180 0.355232
v 0.142508 0.201108 0.269037
v -0.192741 0.204414 0.958360
v 0.113701 -0.065133 0.909266
v 0.079095 0.616763 0.559611
v 0.018405 0.609267 0.771546
v 0.116918 0.579363 0.537170
v 0.069228 0.594102 0.580692
v -0.040185 0.606920 0.814195
v -0.774800 0.964824 0.212946
v 0.109711 1.003103 0.528514
v -0.143468 0.120927 -0.163963
v -0.057246 0.584688 0.714810
v -0.112982 0.793053 0.621269
v -0.443505 -1.325725 0.532422
v -0.058672 -0.702634 0.911460
v -0.268509 -0.482442 0.643451
v -0.087860 -0.594684 0.917469
v -0.208154 -0.610113 0.954232
v -0.449000 -0.600926 0.817388
v 0.185906 -0.821207 0.783662
v 0.188426 -0.255319 0.637363
v 0.036581 -0.210783 0.782042
v -0.014567 -0.387277 0.935771
v 0.212738 -0.367721 0.967664
v 0.224824 -0.427686 0.912557
v -0.190424 -0.301360 0.783596
v 0.046399 -0.186398 0.851239
v -0.007784 -0.127436 0.993688
v -0.259736 0.559676 0.733589
v -0.034209 0.535113 0.631828
v -0.355129 0.037599 0.665691
v -0.032415 0.329334 0.665096
v -0.260355 0.446240 0.844590
v -0.179475 -0.137085 0.528002
v -0.139325 0.067954 0.552868
v 0.198674 0.055049 0.486417
v -0.228281 0.257858 0.442083
v -0.089160 -0.088503 0.417879
v 0.138546 0.946611 0.157927
v -0.195254 0.621420 0.081421
v -0.084775 0.465255 0.116706
v 0.127963 0.310131 0.146866
v 0.313600 0.524450 -0.042479
v -0.164411 0.199978 0.527914
v -0.107906 0.206851 0.736221
v -0.166091 0.439133 0.651166
v -0.167730 0.334168 0.481451
v -0.188984 0.187366 0.731834
v 0.003738 0.474841 1.242276
v -0.056609 -0.027415 1.108459
v 0.082058 0.007033 1.140675
v 0.078924 0.296882 1.043274
v -0.155035 0.180601 1.120707
v 0.299274 0.205934 0.548942
v 0.236131 -0.153571 0.796800
v 0.349908 0.112350 0.467397
v 0.303387 0.165738 0.433777
v 0.116912 -0.221449 0.651387
v -0.086352 0.139576 1.020919
v -0.060496 -0.179840 1.122096
v -0.229670 -0.054157 1.134524
v -0.179460 0.096582 1.136035
v 0.042403 -0.032792 1.036668
v -0.057872 0.754771 0.593302
v 0.334970 0.719501 0.390678
v -0.123992 0.876732 0.487943
v -0.023897 0.747208 0.265685
v -0.085177 0.497414 0.928316
v -0.119708 0.583978 0.560927
v -0.162537 0.437444 0.949378
v 0.159105 0.442563 0.465907
v 0.243880 0.829379 0.194402
v 0.162378 0.492965 0.225008
v 0.168720 0.386742 0.849397
v 0.201887 0.216006 0.424041
v 0.223425 0.093152 0.856940
v -0.185338 0.369873 1.100929
v 0.069928 0.130059 0.962633
v 0.053783 0.749972 0.833834
v 0.115874 0.551565 0.812219
v -0.077769 0.530557 0.476035
v -0.060422 0.446349 0.273334
v -0.204235 0.583116 0.838928
v -0.065930 0.336667 0.515370
v -0.202083 0.280756 0.732314
v 0.075566 0.508756 1.123643
v -0.186137 0.382921 0.919056
v 0.034190 -0.591166 0.685426
v -0.391486 -0.453659 0.619964
v 0.622590 -0.850465 0.656244
v -0.367191 -0.545117 0.499675
v -0.141648 -0.453020 1.048652
v 0.478734 0.061656 0.829370
v -0.065950 -0.317201 0.887816
v -0.039630 -0.378841 0.713101
v -0.216632 -0.116782 0.643993
v -0.005122 -0.266744 0.560183
v -0.119336 -0.425283 0.936828
v 0.359749 -0.439021 0.664994
v 0.085346 -0.228678 0.847767
v -0.184884 -0.239704 1.117673
v 0.004157 -0.207725 0.965392
v 0.040461 -0.538006 1.116132
v 0.163104 -0.365459 0.918369
v 0.060733 0.056758 0.677413
v 0.008325 0.335402 0.556414
v -0.113197 -0.164863 0.907665
v -0.027995 0.325593 0.719678
v -0.141502 0.065076 0.794476
v 0.101356 -0.304501 1.165706
v -0.148774 -0.016515 1.009067
v 0.011989 -0.006667 0.925893
v -0.128709 0.013105 0.910371
v -0.376279 0.682673 0.839013
v -0.212712 0.147941 0.824180
v -0.030542 0.174812 1.102386
v -0.220979 0.119171 0.998868
v -0.637244 0.299368 0.316057
v 0.053297 -0.184653 0.339609
v -0.204725 0.281572 0.215714
v 0.014674 0.149885 0.180960
v -0.262057 0.471049 0.397486
v 0.214329 -0.105235 0.221173
v 0.094453 0.595477 0.638410
v 0.064206 0.546956 0.743536
v 0.248383 0.709496 0.611649
v 0.226920 0.354394 0.748704
v 0.034057 0.420311 0.793617
v -0.215157 0.964054 0.340774
v -0.025063 0.979332 0.451915
v -0.237334 0.772173 0.500437
v -0.043300 0.659425 0.803823
v -0.081812 0.834657 0.612370
v -0.374739 -0.461354 0.760496
v -0.524465 -0.731049 0.867958
v 0.003696 -0.760048 0.845965
v -0.066459 -0.761787 0.933676
v -0.234924 -0.666637 0.926662
v -0.109064 -0.649344 0.840564
v -0.110010 -0.545291 0.911231
v 0.097179 -0.416222 0.715856
v 0.033260 -0.370392 0.807485
v -0.084326 -0.478769 0.970495
v 0.054314 -0.325036 0.930355
v 0.050076 -0.387318 0.923859
v -0.103722 -0.294214 0.801588
v -0.053818 -0.334810 0.769105
v -0.041543 -0.203119 0.975258
v -0.262160 0.412186 0.591240
v -0.151943 0.440900 0.741728
v -0.277220 0.315084 0.736575
v -0.166061 0.472481 0.780432
v -0.262472 0.425846 0.730942
v -0.104252 -0.051717 0.559821
v -0.148549 0.085732 0.511946
v 0.039050 0.495099 0.684901
v -0.214869 0.185887 0.477296
v -0.112697 -0.081074 0.440637
v -0.179374 0.806038 0.193728
v 0.594348 0.267065 0.093793
v 0.089536 0.669239 0.035942
v 0.257581 0.429952 0.096782
v 0.071899 0.803164 -0.008907
v -0.161863 0.135220 0.619722
v -0.164266 0.221601 0.659227
v -0.202248 0.270081 0.636578
v -0.185515 0.293019 0.558916
v -0.140533 0.131408 0.671636
v 0.005548 0.281052 1.209208
v -0.022821 0.110774 1.230828
v 0.068775 0.116296 1.234502
v 0.090005 0.233019 1.211402
v -0.105220 0.184488 1.214636
v 0.259444 0.066727 0.513481
v 0.230980 -0.106805 0.662841
v 0.313126 -0.037172 0.588038
v 0.304340 -0.016264 0.464696
v 0.198981 -0.071415 0.625242
v 0.003976 0.039778 1.167523
v -0.106129 -0.074041 1.108730
v -0.124587 -0.034098 1.093466
v -0.085334 0.038566 1.197313
v 0.004598 -0.040028 1.097335
v 0.076137 0.685846 0.527722
v -0.274440 0.808935 0.328343
v -0.069352 0.772583 0.481106
v 0.135439 0.764420 0.438861
v -0.169256 0.803909 0.428243
v -0.065053 0.694866 0.328842
v -0.027067 0.677537 0.800032
v -0.182838 0.553112 0.747949
v -0.011556 0.745476 0.823699
v -0.102588 0.551410 0.870790
v -0.305829 0.607325 0.566459
v -0.146743 0.521885 0.885600
v 0.249735 0.491958 0.406644
v 0.174891 0.702612 0.223824
v 0.346483 0.532049 0.389612
v 0.152268 0.483382 0.413911
v 0.352308 0.723768 0.262045
v 0.171153 0.565803 0.283602
v 0.132634 0.404241 0.680505
v 0.198887 0.139634 0.531626
v 0.070124 0.386213 0.589706
v 0.172683 0.372863 0.720823
v 0.172066 0.231289 0.489775
v 0.191522 0.226071 0.704988
v 0.008407 0.495890 0.964911
v -0.011306 0.238884 0.978682
v -0.006381 0.441702 0.955304
v 0.095522 0.354556 0.959942
v -0.078902 0.365856 1.015795
v 0.073527 0.245233 0.960754
v 0.020773 0.863827 0.525580
v 0.014235 0.583785 0.553053
v -0.044029 0.846546 0.578082
v -0.022438 0.743019 0.586720
v 0.080199 0.743246 0.695360
v 0.042994 0.650522 0.713257
v -0.162324 0.623779 0.085985
v -0.130292 0.574844 0.128070
v -0.055170 0.752740 0.135229
v 0.024713 0.740203 0.130686
v -0.045184 0.525275 0.293694
v 0.018821 0.476658 0.264729
v 0.520878 0.728137 0.268781
v -0.221090 0.382304 0.634824
v -0.027243 0.485928 0.577216
v -0.700754 0.311038 0.749348
v -0.107552 0.406051 0.583664
v -0.231836 0.281523 0.700079
v -0.076319 0.706010 0.850600
v 0.067548 0.570791 1.057452
v 0.043165 0.652567 0.920705
v -0.094753 0.546995 0.894934
v 0.116878 0.608653 1.078274
v -0.123583 0.477944 0.989427
v -0.272010 -0.880988 0.603611
v -0.002733 -0.574755 0.725734
v 0.025163 -0.644310 0.680066
v -0.347854 -0.665530 0.558059
v 0.334926 -0.242166 0.797187
v -0.205434 -0.578394 0.663379
v -0.047454 -0.460328 0.832094
v 0.641880 -0.686757 1.040473
v 0.098290 -0.425988 0.729855
v -0.048535 -0.450209 0.934346
v 0.249880 -0.288099 0.836049
v -0.028297 -0.391870 0.857421
v -0.306656 -0.255327 0.861853
v -0.286019 -0.305349 0.622140
v -0.508481 -0.006615 0.642378
v -0.166311 -0.299382 0.712212
v -0.278042 -0.076352 0.656528
v -0.148208 -0.253909 0.683832
v 0.031601 -0.490560 0.827557
v 0.197876 -0.232915 0.786687
v 0.026454 -0.449249 0.758274
v 0.025304 -0.423727 0.924919
v 0.264995 -0.309817 0.676282
v 0.127882 -0.293594 0.862099
v -0.075996 -0.522554 1.138083
v -0.063502 -0.278133 1.077950
v -0.095143 -0.450749 1.154350
v -0.139910 -0.453019 1.022945
v -0.094173 -0.345134 1.139595
v -0.030545 -0.306669 1.045649
v 0.236564 -1.362408 0.737872
v 0.359953 -0.458404 0.894611
v 0.429375 -0.834984 0.743921
v 0.437872 -0.440096 0.845900
v 0.109975 -0.552412 0.936344
v 0.257798 -0.473054 0.897722
v 0.145794 -0.140907 0.569450
v -0.101008 0.001633 0.594302
v 0.049225 -0.127017 0.568677
v -0.123581 -0.061638 0.601448
v 0.060108 -0.018969 0.620876
v -0.036408 0.021286 0.620850
v 0.090919 -0.043548 0.866161
v -0.047823 0.170419 0.786588
v 0.068682 0.132672 0.817211
v -0.075297 -0.108729 0.856504
v 0.048966 0.159729 0.726205
v -0.120506 0.020597 0.812093
v -0.041579 -0.360514 1.018861
v -0.060501 -0.088907 1.070675
v 0.028887 -0.378118 1.065248
v -0.080145 -0.203743 0.960104
v 0.018913 -0.204521 1.087283
v -0.115437 -0.121609 1.016358
v -0.136361 -0.175814 0.758963
v -0.347446 0.186979 0.645443
v -0.204214 0.016062 0.764196
v -0.091523 -0.038037 0.763521
v -0.497965 0.501762 0.955390
v -0.179766 0.049525 0.803803
v 0.215548 -0.149721 0.845691
v 0.010331 -0.114377 1.041140
v 0.200097 -0.229035 1.019212
v 0.180677 -0.164717 1.141470
v 0.104486 -0.089449 0.924062
v -0.068237 0.011160 1.021150
v -0.144271 -0.130593 0.968204
v -0.298432 -0.072579 1.089405
v -0.194731 -0.174540 0.972115
v -0.332691 -0.234684 1.003888
v -0.132339 -0.049552 0.988025
v -0.229264 0.012415 0.987829
v 0.085731 0.390299 0.809323
v 0.021471 0.380026 0.933089
v 0.139674 0.450052 0.879937
v 0.109163 0.421821 1.040161
v 0.080552 0.313957 0.835050
v 0.139938 0.145355 0.893385
v -0.137160 0.354037 0.822800
v -0.305677 0.223825 1.108609
v -0.169455 0.394116 0.915200
v -0.285291 0.321929 1.075826
v -0.029469 0.275784 0.868683
v -0.058232 0.187139 0.896437
v -0.288909 -0.063379 0.152636
v -0.226447 0.287310 0.243948
v -0.266918 -0.082941 0.423982
v -0.060005 -0.059776 0.281611
v -0.257639 0.156851 0.285282
v -0.148085 0.205672 0.112500
v -0.244388 0.471656 0.392610
v -0.147831 0.498667 0.562548
v -0.028455 0.501365 0.486610
v 0.019171 0.529654 0.562522
v -0.555075 0.758778 0.326543
v -0.261256 0.581252 0.446791
v -0.001019 -0.369898 0.572999
v 0.276724 -0.235196 0.486408
v 0.102649 -0.309011 0.622569
v 0.262753 -0.303225 0.649383
v 0.067449 -0.355994 0.392132
v 0.362117 -0.016233 -0.225294
v 0.071580 0.339170 0.249468
v -0.099633 0.311885 0.381339
v 0.059328 0.483893 0.392609
v -0.044984 0.336168 0.401953
v -0.130061 0.320827 0.268712
v -0.178224 0.401758 0.355900
v 0.116691 0.378941 0.100170
v 0.227348 0.174441 0.307547
v 0.166270 0.371802 0.212246
v 0.179888 0.282508 0.304140
v 0.085820 0.173479 0.204765
v 0.139686 0.070597 0.276319
v -0.130232 0.169598 0.818196
v -0.172587 0.194240 1.039468
v -0.210197 0.241772 0.836295
v -0.175756 0.283296 0.901932
v -0.179375 0.128790 0.915152
v -0.167295 0.086587 0.989872
v 0.163633 -0.137321 0.795300
v 0.101941 -0.090614 0.938640
v 0.177643 -0.027072 0.865819
v 0.120732 0.018993 0.941384
v 0.078998 -0.190259 0.848737
v 0.084645 -0.146135 0.936993
v 0.019184 0.613787 0.682025
v 0.145125 0.598523 0.571018
v -0.005341 0.678936 0.561038
v 0.192085 0.672343 0.531361
v 0.066836 0.433628 0.846714
v 0.017879 0.704643 0.680878
v -0.012068 0.596991 0.891574
v 0.064714 0.677784 0.532977
v 0.245194 0.594530 0.508934
v 0.132052 0.473208 0.486789
v 0.052490 0.549594 0.734389
v 0.077806 0.516273 0.689636
v 0.192357 0.538101 0.757084
v -0.020917 0.533739 0.897557
v 0.111973 0.516828 0.878268
v -0.000891 1.225621 0.349453
v -0.341511 0.772290 0.121519
v -0.227387 0.973912 0.382474
v -0.431819 0.540512 0.281847
v -0.000028 0.907325 0.615711
v -0.010748 0.938716 0.551925
v 0.079332 0.947910 0.724769
v 0.309011 0.392183 1.461838
v -0.214964 0.731244 0.081164
v -0.093265 0.599601 0.455277
v -0.106489 0.744223 0.581364
v -0.024177 0.586618 0.731029
v -0.157386 0.574158 0.669395
v -0.025196 0.793283 0.740711
v -0.164757 0.698822 0.709469
v -0.187376 -1.312833 0.691811
v -0.438488 -0.538047 0.645551
v -0.289501 -0.703362 0.674810
v -0.612575 -0.917541 0.527242
v -0.240977 -0.633054 0.951551
v -0.157322 -0.611266 0.763059
v -0.156976 -0.528164 0.980715
v -0.057470 -0.526657 0.780057
v -0.556250 -0.279006 0.731811
v -0.099080 -0.462780 0.832699
v -0.108260 -0.662750 0.918897
v -0.066039 -0.536973 0.678039
v -0.095285 -0.500770 0.872374
v -0.154443 -0.515660 1.075560
v -0.127797 -0.536413 0.921244
v 0.598803 -0.320487 1.153603
v 0.110296 -0.451541 0.615187
v 0.216280 -0.733080 0.764994
v -0.067007 -0.494848 0.586915
v 0.212997 -0.509727 0.842600
v 0.630538 -1.256979 0.660220
v 0.247805 -0.826229 1.052717
v 0.074495 -0.258646 0.669932
v 0.125943 -0.262011 0.578566
v 0.103931 -0.083851 0.678846
v -0.031166 -0.345365 0.836154
v 0.124604 -0.072139 0.733495
v -0.032561 -0.198601 0.802599
v 0.034106 -0.450880 1.050328
v -0.074880 -0.277639 0.930567
v 0.177951 -0.400152 0.935332
v 0.038926 -0.140826 0.890730
v 0.282106 -0.265219 0.907781
v -0.581418 -0.008150 0.867573
v 0.056911 -0.388870 0.874271
v 0.319827 -0.321077 0.921960
v 0.120716 -0.346195 0.924996
v 0.045986 -0.118728 0.890801
v -0.084495 -0.135762 0.814578
v -0.038759 0.151345 0.946114
v -0.095092 -0.068504 0.709861
v 0.187926 -0.221085 0.933375
v -0.019206 -0.107555 0.976679
v 0.052142 -0.260425 0.888892
v -0.135022 -0.070443 0.894047
v -0.064218 0.619654 0.612230
v -0.336972 0.434964 0.807801
v -0.188851 0.526406 0.614930
v -0.226911 0.507631 0.857575
v -0.022714 0.470576 0.673354
v -0.067693 0.618547 0.629821
v 0.020900 0.487459 0.651147
v -0.248144 0.272345 0.608192
v -0.268520 0.384819 0.867508
v -0.236770 0.279465 0.761921
v -0.223194 0.226644 0.802038
v 0.088019 0.468210 0.717302
v -0.154064 0.322595 0.833731
v -0.265540 0.440259 0.866128
v -0.160773 0.292846 0.828930
v -0.165648 -0.023850 0.527285
v -0.121342 -0.156639 0.484553
v -0.200139 -0.071429 0.550456
v -0.225956 -0.372010 0.558559
v -0.174174 0.187595 0.510566
v -0.135627 0.004251 0.580965
v -0.125073 0.140025 0.570880
v -0.241604 0.101463 0.349565
v -0.218446 -0.033982 0.274781
v -0.036159 -0.399228 0.449280
v -0.036374 -0.053618 0.147635
v -0.171866 0.272662 0.477055
v -0.393331 0.297109 0.337923
v -0.102260 -0.345027 0.478628
v -0.079024 -0.216660 0.406164
v -0.332600 1.254503 -0.055702
v 0.124546 0.716179 0.062037
v 0.113513 0.860529 0.183949
v 0.156106 0.699558 0.211335
v 0.373068 -0.086265 0.115438
v -0.107942 0.750524 0.056496
v 0.017725 0.387348 0.286046
v 0.034369 0.453575 0.103087
v -0.322996 0.513810 -0.017598
v -0.142417 0.339711 0.228157
v -0.142389 0.329475 0.110142
v 0.112410 0.354452 0.172926
v -0.056862 0.310368 0.206261
v 0.177294 0.447376 0.136175
v -0.044735 0.390644 0.100088
v -0.149163 0.240330 0.471237
v -0.181194 0.186334 0.642214
v -0.155096 0.310446 0.524053
v -0.239939 0.274125 0.632203
v -0.106152 0.322995 0.735061
v -0.146298 0.162060 0.711144
v -0.040903 0.311485 0.733771
v -0.122303 0.074414 0.696160
v -0.199243 0.358364 0.532454
v -0.107106 0.467221 0.659515
v -0.220795 0.438051 0.507032
v -0.088161 0.298211 0.401379
v -0.178616 0.426421 0.440651
v -0.186671 0.210133 0.746359
v -0.153076 0.008846 0.868527
v 0.016083 0.390696 1.140823
v -0.093889 0.293761 1.123510
v 0.054049 0.482793 1.133528
v -0.110700 0.387417 1.044225
v 0.061628 0.009698 1.217542
v -0.115402 0.102790 1.102180
v 0.033889 -0.073480 1.113808
v -0.102990 -0.017580 1.057923
v 0.117115 0.129541 1.072961
v 0.103303 -0.098374 1.177154
v 0.078483 0.025901 1.118096
v 0.023448 0.421055 1.036676
v 0.142736 0.183024 0.961594
v -0.185207 0.282613 1.068883
v -0.140680 0.089814 1.078892
v 0.272279 0.106189 0.470189
v 0.244149 -0.045569 0.686803
v 0.246302 0.181419 0.426342
v 0.240869 0.083905 0.655183
v 0.276866 -0.091328 0.620643
v 0.199863 -0.149477 0.726274
v 0.293929 -0.193012 0.683205
v 0.136629 -0.169719 0.802256
v 0.330939 0.090264 0.430079
v 0.361082 -0.215777 0.652790
v 0.289377 -0.046206 0.414934
v 0.260524 0.205439 0.398967
v 0.249945 0.068479 0.358457
v 0.239862 0.001982 0.744867
v 0.116166 -0.213156 0.750725
v -0.148102 0.101846 1.149244
v 0.021342 0.010215 1.097816
v -0.152422 0.287012 1.040046
v 0.021002 0.129576 1.050903
v -0.147944 -0.118964 1.126107
v -0.021456 -0.118714 1.062533
v -0.095152 -0.214681 1.124185
v -0.009332 -0.203145 1.019461
v -0.157520 0.037560 1.140112
v -0.229883 -0.165504 1.136156
v -0.258323 0.083797 1.068014
v -0.236674 0.278003 1.188110
v -0.211332 0.134367 1.078614
v 0.064612 0.082687 1.035046
v 0.048818 -0.149472 0.969251
v -0.086112 0.768797 0.506153
v -0.184935 0.718725 0.502404
v 0.241039 0.832854 0.295444
v 0.783785 0.952954 0.138191
v -0.077411 0.759907 0.562864
v 0.209835 1.082285 0.141357
v -0.129382 0.479368 0.952960
v -0.083525 0.425619 1.004943
v -0.153249 0.400037 1.016503
v 0.153872 0.465452 0.347802
v 0.133022 0.312741 0.402994
v 0.168676 0.378162 0.283994
v 0.196335 0.194330 0.835203
v 0.147568 0.207837 0.911083
v 0.192832 0.085502 0.911146
v 0.101701 0.640022 0.757176
v 0.177341 0.597406 0.950281
v 0.132586 0.550863 0.782115
v -0.087131 0.482113 0.359327
v -0.082306 0.428554 0.429934
v -0.015274 0.420099 0.340968
v -0.246086 0.386741 0.796224
v -0.186791 0.483986 0.883456
v -0.222077 0.335586 0.834002
v 0.320456 -0.473726 0.803266
v 0.295426 -0.325528 0.780304
v -0.398289 -0.442280 0.592631
v -0.302131 -0.152737 0.621880
v 0.572620 -0.242053 0.764933
v -0.149252 -0.179277 0.592172
v -0.118059 -0.403364 1.021527
v -0.130234 -0.397348 1.124238
v -0.183415 -0.297863 1.014190
v -0.020200 -0.284474 0.680459
v 0.144555 -0.291538 0.634605
v 0.157804 -0.271001 0.573277
v 0.024195 -0.333748 0.911740
v -0.015631 -0.294487 0.932148
v 0.024140 -0.244476 0.881825
v 0.094133 -0.450685 1.073321
v 0.066043 -0.327160 1.125282
v 0.107667 -0.326587 1.147117
v 0.116224 0.208866 0.610587
v 0.073734 0.230447 0.726503
v 0.037148 0.326440 0.674492
v -0.138775 -0.093158 0.843835
v -0.144421 -0.113511 0.983612
v -0.170221 -0.005163 0.955679
v 0.648093 -0.761969 0.941435
v 0.152419 0.063657 1.008421
v -0.181289 0.008691 0.754466
v -0.211349 0.052641 0.850094
v 0.117026 0.144443 0.970454
v -0.124720 0.167015 0.828801
v -0.373216 0.248305 0.358505
v -0.372564 0.461622 0.354017
v 0.062248 -0.033704 0.313563
v 0.124965 -0.162020 0.240162
v -0.272157 0.386148 0.317512
v 0.109687 0.038029 0.253577
f 1 167 164
f 1 164 163
f 1 163 165
f 1 165 166
f 1 166 167
f 2 169 172
f 6 192 190
f 12 222 219
f 11 216 215
f 8 199 201
f 4 182 179
f 4 179 178
f 4 178 180
f 4 180 181
f 4 181 182
f 5 186 185
f 3 174 177
f 7 193 197
f 9 205 206
f 10 212 208
f 12 221 218
f 6 189 188
f 2 170 168
f 8 202 198
f 11 217 213
f 6 191 189
f 12 220 221
f 11 214 217
f 8 200 202
f 2 171 170
f 10 210 209
f 5 183 184
f 3 175 173
f 7 196 194
f 9 207 204
f 10 211 210
f 5 187 183
f 3 176 175
f 7 195 196
f 9 203 207
f 6 188 192
f 2 168 169
f 8 198 199
f 11 213 216
f 12 218 222
f 10 208 211
f 5 185 187
f 3 177 176
f 7 197 195
f 9 206 203
f 5 184 186
f 3 173 174
f 7 194 193
f 9 204 205
f 10 209 212
f 6 190 191
f 12 219 220
f 11 215 214
f 8 201 200
f 2 172 171
f 35 357 358
f 18 255 256
f 19 262 261
f 40 388 387
f 42 400 399
f 34 352 351
f 33 347 348
f 25 298 300
f 36 364 366
f 20 269 267
f 32 339 340
f 23 285 287
f 24 293 291
f 37 370 369
f 41 396 395
f 34 353 354
f 33 346 345
f 25 299 297
f 36 365 363
f 20 268 270
f 17 249 247
f 14 231 229
f 13 226 223
f 15 238 235
f 16 244 241
f 18 257 253
f 35 359 355
f 42 402 398
f 40 390 386
f 19 264 260
f 30 327 325
f 27 309 307
f 22 282 278
f 28 317 313
f 29 322 319
f 32 341 337
f 23 286 283
f 24 294 290
f 37 372 368
f 41 394 392
f 35 358 356
f 18 256 254
f 19 261 259
f 40 387 385
f 42 399 397
f 34 351 349
f 33 348 344
f 25 300 296
f 36 366 362
f 20 267 265
f 32 340 338
f 23 287 284
f 24 291 289
f 37 369 367
f 41 395 391
f 34 354 350
f 33 345 343
f 25 297 295
f 36 363 361
f 20 270 266
f 14 234 230
f 13 227 224
f 15 239 236
f 16 245 242
f 17 252 248
f 21 275 272
f 31 334 331
f 26 304 301
f 38 377 373
f 39 382 380
f 27 312 308
f 22 279 277
f 28 316 314
f 29 323 320
f 30 330 326
f 31 335 332
f 26 305 302
f 38 376 374
f 39 383 379
f 21 274 271
f 14 232 234
f 13 225 227
f 15 237 239
f 16 243 245
f 17 250 252
f 21 273 275
f 31 336 334
f 26 306 304
f 38 378 377
f 39 381 382
f 27 311 312
f 22 281 279
f 28 315 316
f 29 321 323
f 30 328 330
f 31 333 335
f 26 303 305
f 38 375 376
f 39 384 383
f 21 276 274
f 14 229 232
f 13 223 225
f 15 235 237
f 16 241 243
f 17 247 250
f 21 271 273
f 31 332 336
f 26 302 306
f 38 374 378
f 39 379 381
f 27 307 311
f 22 278 281
f 28 313 315
f 29 319 321
f 30 325 328
f 31 331 333
f 26 301 303
f 38 373 375
f 39 380 384
f 21 272 276
f 17 248 251
f 14 230 233
f 13 224 228
f 15 236 240
f 16 242 246
f 18 254 258
f 35 356 360
f 42 397 401
f 40 385 389
f 19 259 263
f 30 326 329
f 27 308 310
f 22 277 280
f 28 314 318
f 29 320 324
f 32 338 342
f 23 284 288
f 24 289 292
f 37 367 371
f 41 391 393
f 35 355 357
f 18 253 255
f 19 260 262
f 40 386 388
f 42 398 400
f 34 350 352
f 33 343 347
f 25 295 298
f 36 361 364
f 20 266 269
f 32 337 339
f 23 283 285
f 24 290 293
f 37 368 370
f 41 392 396
f 34 349 353
f 33 344 346
f 25 296 299
f 36 362 365
f 20 265 268
f 17 251 249
f 14 233 231
f 13 228 226
f 15 240 238
f 16 246 244
f 18 258 257
f 35 360 359
f 42 401 402
f 40 389 390
f 19 263 264
f 30 329 327
f 27 310 309
f 22 280 282
f 28 318 317
f 29 324 322
f 32 342 341
f 23 288 286
f 24 292 294
f 37 371 372
f 41 393 394
f 107 409 416
f 103 405 408
f 104 411 406
f 110 414 412
f 113 417 415
f 118 431 424
f 154 488 492
f 141 575 582
f 162 563 565
f 121 519 514
f 142 454 461
f 129 450 453
f 130 456 451
f 144 459 457
f 146 462 460
f 151 472 475
f 131 446 439
f 136 506 496
f 161 535 533
f 126 541 551
f 116 570 579
f 108 480 483
f 106 421 426
f 112 511 521
f 115 556 566
f 119 484 489
f 156 580 578
f 139 567 560
f 160 522 518
f 120 427 429
f 149 544 547
f 132 468 465
f 128 436 441
f 145 499 504
f 148 530 537
f 155 548 550
f 133 466 476
f 134 442 444
f 157 505 502
f 124 536 526
f 109 491 481
f 105 423 420
f 111 513 510
f 114 564 555
f 117 581 571
f 125 549 540
f 152 477 473
f 137 445 447
f 158 503 507
f 123 525 534
f 143 474 469
f 127 438 435
f 135 495 498
f 147 532 529
f 150 552 545
f 153 490 487
f 140 577 574
f 138 559 562
f 159 517 520
f 122 430 432
f 107 590 589
f 103 584 583
f 104 585 586
f 110 592 593
f 113 595 596
f 118 598 599
f 154 636 633
f 141 621 620
f 162 642 640
f 121 601 603
f 142 623 622
f 129 611 607
f 130 609 612
f 144 625 626
f 146 628 629
f 151 632 631
f 131 613 614
f 136 616 618
f 161 638 641
f 126 606 605
f 47 407 167
f 44 403 164
f 43 404 163
f 45 410 165
f 46 413 166
f 49 422 169
f 72 486 192
f 102 573 222
f 96 561 216
f 79 512 199
f 62 452 182
f 59 448 179
f 58 449 178
f 60 455 180
f 61 458 181
f 66 470 186
f 54 437 174
f 73 494 193
f 85 531 205
f 92 539 212
f 101 568 221
f 69 478 189
f 50 419 170
f 82 509 202
f 97 554 217
f 71 482 191
f 100 576 220
f 94 558 214
f 80 516 200
f 51 425 171
f 90 542 210
f 63 463 183
f 55 434 175
f 76 497 196
f 87 528 207
f 91 546 211
f 67 464 187
f 56 440 176
f 75 500 195
f 83 524 203
f 68 479 188
f 48 418 168
f 78 508 198
f 93 553 213
f 98 569 218
f 88 538 208
f 65 471 185
f 57 443 177
f 77 501 197
f 86 523 206
f 64 467 184
f 53 433 173
f 74 493 194
f 84 527 204
f 89 543 209
f 70 485 190
f 99 572 219
f 95 557 215
f 81 515 201
f 52 428 172
f 109 591 357
f 105 587 255
f 111 588 262
f 114 594 388
f 117 597 400
f 125 600 352
f 152 634 347
f 137 619 298
f 158 639 364
f 123 602 269
f 143 624 339
f 127 608 285
f 135 610 293
f 147 627 370
f 150 630 396
f 153 635 353
f 140 615 346
f 138 617 299
f 159 637 365
f 122 604 268
f 107 416 249
f 103 408 231
f 104 406 226
f 110 412 238
f 113 415 244
f 118 424 257
f 154 492 359
f 141 582 402
f 162 565 390
f 121 514 264
f 142 461 327
f 129 453 309
f 130 451 282
f 144 457 317
f 146 460 322
f 151 475 341
f 131 439 286
f 136 496 294
f 161 533 372
f 126 551 394
f 116 579 358
f 108 483 256
f 106 426 261
f 112 521 387
f 115 566 399
f 119 489 351
f 156 578 348
f 139 560 300
f 160 518 366
f 120 429 267
f 149 547 340
f 132 465 287
f 128 441 291
f 145 504 369
f 148 537 395
f 155 550 354
f 133 476 345
f 134 444 297
f 157 502 363
f 124 526 270
f 109 481 234
f 105 420 227
f 111 510 239
f 114 555 245
f 117 571 252
f 125 540 275
f 152 473 334
f 137 447 304
f 158 507 377
f 123 534 382
f 143 469 312
f 127 435 279
f 135 498 316
f 147 529 323
f 150 545 330
f 153 487 335
f 140 574 305
f 138 562 376
f 159 520 383
f 122 432 274
f 107 589 232
f 103 583 225
f 104 586 237
f 110 593 243
f 113 596 250
f 118 599 273
f 154 633 336
f 141 620 306
f 162 640 378
f 121 603 381
f 142 622 311
f 129 607 281
f 130 612 315
f 144 626 321
f 146 629 328
f 151 631 333
f 131 614 303
f 136 618 375
f 161 641 384
f 126 605 276
f 44 409 229
f 43 405 223
f 45 411 235
f 46 414 241
f 47 417 247
f 52 431 271
f 70 488 332
f 99 575 302
f 95 563 374
f 81 519 379
f 59 454 307
f 58 450 278
f 60 456 313
f 61 459 319
f 62 462 325
f 65 472 331
f 57 446 301
f 77 506 373
f 86 535 380
f 88 541 272
f 98 570 248
f 68 480 230
f 48 421 224
f 78 511 236
f 93 556 242
f 69 484 254
f 101 580 356
f 97 567 397
f 82 522 385
f 50 427 259
f 89 544 326
f 64 468 308
f 53 436 277
f 74 499 314
f 84 530 320
f 90 548 338
f 63 466 284
f 55 442 289
f 76 505 367
f 87 536 391
f 72 491 355
f 49 423 253
f 79 513 260
f 96 564 386
f 102 581 398
f 91 549 350
f 67 477 343
f 56 445 295
f 75 503 361
f 83 525 266
f 66 474 337
f 54 438 283
f 73 495 290
f 85 532 368
f 92 552 392
f 71 490 349
f 100 577 344
f 94 559 296
f 80 517 362
f 51 430 265
f 116 590 251
f 108 584 233
f 106 585 228
f 112 592 240
f 115 595 246
f 119 598 258
f 156 636 360
f 139 621 401
f 160 642 389
f 120 601 263
f 149 623 329
f 132 611 310
f 128 609 280
f 145 625 318
f 148 628 324
f 155 632 342
f 133 613 288
f 134 616 292
f 157 638 371
f 124 606 393
f 44 407 409
f 43 403 405
f 45 404 411
f 46 410 414
f 47 413 417
f 52 422 431
f 70 486 488
f 99 573 575
f 95 561 563
f 81 512 519
f 59 452 454
f 58 448 450
f 60 449 456
f 61 455 459
f 62 458 462
f 65 470 472
f 57 437 446
f 77 494 506
f 86 531 535
f 88 539 541
f 98 568 570
f 68 478 480
f 48 419 421
f 78 509 511
f 93 554 556
f 69 482 484
f 101 576 580
f 97 558 567
f 82 516 522
f 50 425 427
f 89 542 544
f 64 463 468
f 53 434 436
f 74 497 499
f 84 528 530
f 90 546 548
f 63 464 466
f 55 440 442
f 76 500 505
f 87 524 536
f 72 479 491
f 49 418 423
f 79 508 513
f 96 553 564
f 102 569 581
f 91 538 549
f 67 471 477
f 56 443 445
f 75 501 503
f 83 523 525
f 66 467 474
f 54 433 438
f 73 493 495
f 85 527 532
f 92 543 552
f 71 485 490
f 100 572 577
f 94 557 559
f 80 515 517
f 51 428 430
f 116 591 590
f 108 587 584
f 106 588 585
f 112 594 592
f 115 597 595
f 119 600 598
f 156 634 636
f 139 619 621
f 160 639 642
f 120 602 601
f 149 624 623
f 132 608 611
f 128 610 609
f 145 627 625
f 148 630 628
f 155 635 632
f 133 615 613
f 134 617 616
f 157 637 638
f 124 604 606
f 44 164 407
f 43 163 403
f 45 165 404
f 46 166 410
f 47 167 413
f 52 172 422
f 70 190 486
f 99 219 573
f 95 215 561
f 81 201 512
f 59 179 452
f 58 178 448
f 60 180 449
f 61 181 455
f 62 182 458
f 65 185 470
f 57 177 437
f 77 197 494
f 86 206 531
f 88 208 539
f 98 218 568
f 68 188 478
f 48 168 419
f 78 198 509
f 93 213 554
f 69 189 482
f 101 221 576
f 97 217 558
f 82 202 516
f 50 170 425
f 89 209 542
f 64 184 463
f 53 173 434
f 74 194 497
f 84 204 528
f 90 210 546
f 63 183 464
f 55 175 440
f 76 196 500
f 87 207 524
f 72 192 479
f 49 169 418
f 79 199 508
f 96 216 553
f 102 222 569
f 91 211 538
f 67 187 471
f 56 176 443
f 75 195 501
f 83 203 523
f 66 186 467
f 54 174 433
f 73 193 493
f 85 205 527
f 92 212 543
f 71 191 485
f 100 220 572
f 94 214 557
f 80 200 515
f 51 171 428
f 116 358 591
f 108 256 587
f 106 261 588
f 112 387 594
f 115 399 597
f 119 351 600
f 156 348 634
f 139 300 619
f 160 366 639
f 120 267 602
f 149 340 624
f 132 287 608
f 128 291 610
f 145 369 627
f 148 395 630
f 155 354 635
f 133 345 615
f 134 297 617
f 157 363 637
f 124 270 604
f 47 247 416
f 44 229 408
f 43 223 406
f 45 235 412
f 46 241 415
f 49 253 424
f 72 355 492
f 102 398 582
f 96 386 565
f 79 260 514
f 62 325 461
f 59 307 453
f 58 278 451
f 60 313 457
f 61 319 460
f 66 337 475
f 54 283 439
f 73 290 496
f 85 368 533
f 92 392 551
f 101 356 579
f 69 254 483
f 50 259 426
f 82 385 521
f 97 397 566
f 71 349 489
f 100 344 578
f 94 296 560
f 80 362 518
f 51 265 429
f 90 338 547
f 63 284 465
f 55 289 441
f 76 367 504
f 87 391 537
f 91 350 550
f 67 343 476
f 56 295 444
f 75 361 502
f 83 266 526
f 68 230 481
f 48 224 420
f 78 236 510
f 93 242 555
f 98 248 571
f 88 272 540
f 65 331 473
f 57 301 447
f 77 373 507
f 86 380 534
f 64 308 469
f 53 277 435
f 74 314 498
f 84 320 529
f 89 326 545
f 70 332 487
f 99 302 574
f 95 374 562
f 81 379 520
f 52 271 432
f 109 234 589
f 105 227 583
f 111 239 586
f 114 245 593
f 117 252 596
f 125 275 599
f 152 334 633
f 137 304 620
f 158 377 640
f 123 382 603
f 143 312 622
f 127 279 607
f 135 316 612
f 147 323 626
f 150 330 629
f 153 335 631
f 140 305 614
f 138 376 618
f 159 383 641
f 122 274 605
f 107 232 409
f 103 225 405
f 104 237 411
f 110 243 414
f 113 250 417
f 118 273 431
f 154 336 488
f 141 306 575
f 162 378 563
f 121 381 519
f 142 311 454
f 129 281 450
f 130 315 456
f 144 321 459
f 146 328 462
f 151 333 472
f 131 303 446
f 136 375 506
f 161 384 535
f 126 276 541
f 116 251 570
f 108 233 480
f 106 228 421
f 112 240 511
f 115 246 556
f 119 258 484
f 156 360 580
f 139 401 567
f 160 389 522
f 120 263 427
f 149 329 544
f 132 310 468
f 128 280 436
f 145 318 499
f 148 324 530
f 155 342 548
f 133 288 466
f 134 292 442
f 157 371 505
f 124 393 536
f 109 357 491
f 105 255 423
f 111 262 513
f 114 388 564
f 117 400 581
f 125 352 549
f 152 347 477
f 137 298 445
f 158 364 503
f 123 269 525
f 143 339 474
f 127 285 438
f 135 293 495
f 147 370 532
f 150 396 552
f 153 353 490
f 140 346 577
f 138 299 559
f 159 365 517
f 122 268 430
f 107 249 590
f 103 231 584
f 104 226 585
f 110 238 592
f 113 244 595
f 118 257 598
f 154 359 636
f 141 402 621
f 162 390 642
f 121 264 601
f 142 327 623
f 129 309 611
f 130 282 609
f 144 317 625
f 146 322 628
f 151 341 632
f 131 286 613
f 136 294 616
f 161 372 638
f 126 394 606
f 47 416 407
f 44 408 403
f 43 406 404
f 45 412 410
f 46 415 413
f 49 424 422
f 72 492 486
f 102 582 573
f 96 565 561
f 79 514 512
f 62 461 452
f 59 453 448
f 58 451 449
f 60 457 455
f 61 460 458
f 66 475 470
f 54 439 437
f 73 496 494
f 85 533 531
f 92 551 539
f 101 579 568
f 69 483 478
f 50 426 419
f 82 521 509
f 97 566 554
f 71 489 482
f 100 578 576
f 94 560 558
f 80 518 516
f 51 429 425
f 90 547 542
f 63 465 463
f 55 441 434
f 76 504 497
f 87 537 528
f 91 550 546
f 67 476 464
f 56 444 440
f 75 502 500
f 83 526 524
f 68 481 479
f 48 420 418
f 78 510 508
f 93 555 553
f 98 571 569
f 88 540 538
f 65 473 471
f 57 447 443
f 77 507 501
f 86 534 523
f 64 469 467
f 53 435 433
f 74 498 493
f 84 529 527
f 89 545 543
f 70 487 485
f 99 574 572
f 95 562 557
f 81 520 515
f 52 432 428
f 109 589 591
f 105 583 587
f 111 586 588
f 114 593 594
f 117 596 597
f 125 599 600
f 152 633 634
f 137 620 619
f 158 640 639
f 123 603 602
f 143 622 624
f 127 607 608
f 135 612 610
f 147 626 627
f 150 629 630
f 153 631 635
f 140 614 615
f 138 618 617
f 159 641 637
f 122 605 604
f 407 164 167
f 403 163 164
f 404 165 163
f 410 166 165
f 413 167 166
f 422 172 169
f 486 190 192
f 573 219 222
f 561 215 216
f 512 201 199
f 452 179 182
f 448 178 179
f 449 180 178
f 455 181 180
f 458 182 181
f 470 185 186
f 437 177 174
f 494 197 193
f 531 206 205
f 539 208 212
f 568 218 221
f 478 188 189
f 419 168 170
f 509 198 202
f 554 213 217
f 482 189 191
f 576 221 220
f 558 217 214
f 516 202 200
f 425 170 171
f 542 209 210
f 463 184 183
f 434 173 175
f 497 194 196
f 528 204 207
f 546 210 211
f 464 183 187
f 440 175 176
f 500 196 195
f 524 207 203
f 479 192 188
f 418 169 168
f 508 199 198
f 553 216 213
f 569 222 218
f 538 211 208
f 471 187 185
f 443 176 177
f 501 195 197
f 523 203 206
f 467 186 184
f 433 174 173
f 493 193 194
f 527 205 204
f 543 212 209
f 485 191 190
f 572 220 219
f 557 214 215
f 515 200 201
f 428 171 172
f 591 358 357
f 587 256 255
f 588 261 262
f 594 387 388
f 597 399 400
f 600 351 352
f 634 348 347
f 619 300 298
f 639 366 364
f 602 267 269
f 624 340 339
f 608 287 285
f 610 291 293
f 627 369 370
f 630 395 396
f 635 354 353
f 615 345 346
f 617 297 299
f 637 363 365
f 604 270 268
f 416 247 249
f 408 229 231
f 406 223 226
f 412 235 238
f 415 241 244
f 424 253 257
f 492 355 359
f 582 398 402
f 565 386 390
f 514 260 264
f 461 325 327
f 453 307 309
f 451 278 282
f 457 313 317
f 460 319 322
f 475 337 341
f 439 283 286
f 496 290 294
f 533 368 372
f 551 392 394
f 579 356 358
f 483 254 256
f 426 259 261
f 521 385 387
f 566 397 399
f 489 349 351
f 578 344 348
f 560 296 300
f 518 362 366
f 429 265 267
f 547 338 340
f 465 284 287
f 441 289 291
f 504 367 369
f 537 391 395
f 550 350 354
f 476 343 345
f 444 295 297
f 502 361 363
f 526 266 270
f 481 230 234
f 420 224 227
f 510 236 239
f 555 242 245
f 571 248 252
f 540 272 275
f 473 331 334
f 447 301 304
f 507 373 377
f 534 380 382
f 469 308 312
f 435 277 279
f 498 314 316
f 529 320 323
f 545 326 330
f 487 332 335
f 574 302 305
f 562 374 376
f 520 379 383
f 432 271 274
f 589 234 232
f 583 227 225
f 586 239 237
f 593 245 243
f 596 252 250
f 599 275 273
f 633 334 336
f 620 304 306
f 640 377 378
f 603 382 381
f 622 312 311
f 607 279 281
f 612 316 315
f 626 323 321
f 629 330 328
f 631 335 333
f 614 305 303
f 618 376 375
f 641 383 384
f 605 274 276
f 409 232 229
f 405 225 223
f 411 237 235
f 414 243 241
f 417 250 247
f 431 273 271
f 488 336 332
f 575 306 302
f 563 378 374
f 519 381 379
f 454 311 307
f 450 281 278
f 456 315 313
f 459 321 319
f 462 328 325
f 472 333 331
f 446 303 301
f 506 375 373
f 535 384 380
f 541 276 272
f 570 251 248
f 480 233 230
f 421 228 224
f 511 240 236
f 556 246 242
f 484 258 254
f 580 360 356
f 567 401 397
f 522 389 385
f 427 263 259
f 544 329 326
f 468 310 308
f 436 280 277
f 499 318 314
f 530 324 320
f 548 342 338
f 466 288 284
f 442 292 289
f 505 371 367
f 536 393 391
f 491 357 355
f 423 255 253
f 513 262 260
f 564 388 386
f 581 400 398
f 549 352 350
f 477 347 343
f 445 298 295
f 503 364 361
f 525 269 266
f 474 339 337
f 438 285 283
f 495 293 290
f 532 370 368
f 552 396 392
f 490 353 349
f 577 346 344
f 559 299 296
f 517 365 362
f 430 268 265
f 590 249 251
f 584 231 233
f 585 226 228
f 592 238 240
f 595 244 246
f 598 257 258
f 636 359 360
f 621 402 401
f 642 390 389
f 601 264 263
f 623 327 329
f 611 309 310
f 609 282 280
f 625 317 318
f 628 322 324
f 632 341 342
f 613 286 288
f 616 294 292
f 638 372 371
f 606 394 393
f 407 416 409
f 403 408 405
f 404 406 411
f 410 412 414
f 413 415 417
f 422 424 431
f 486 492 488
f 573 582 575
f 561 565 563
f 512 514 519
f 452 461 454
f 448 453 450
f 449 451 456
f 455 457 459
f 458 460 462
f 470 475 472
f 437 439 446
f 494 496 506
f 531 533 535
f 539 551 541
f 568 579 570
f 478 483 480
f 419 426 421
f 509 521 511
f 554 566 556
f 482 489 484
f 576 578 580
f 558 560 567
f 516 518 522
f 425 429 427
f 542 547 544
f 463 465 468
f 434 441 436
f 497 504 499
f 528 537 530
f 546 550 548
f 464 476 466
f 440 444 442
f 500 502 505
f 524 526 536
f 479 481 491
f 418 420 423
f 508 510 513
f 553 555 564
f 569 571 581
f 538 540 549
f 471 473 477
f 443 447 445
f 501 507 503
f 523 534 525
f 467 469 474
f 433 435 438
f 493 498 495
f 527 529 532
f 543 545 552
f 485 487 490
f 572 574 577
f 557 562 559
f 515 520 517
f 428 432 430
f 591 589 590
f 587 583 584
f 588 586 585
f 594 593 592
f 597 596 595
f 600 599 598
f 634 633 636
f 619 620 621
f 639 640 642
f 602 603 601
f 624 622 623
f 608 607 611
f 610 612 609
f 627 626 625
f 630 629 628
f 635 631 632
f 615 614 613
f 617 618 616
f 637 641 638
f 604 605 606